<?xml version="1.0" encoding="iso-8859-1"?>
<!-- Generator: Adobe Illustrator 18.1.1, SVG Export Plug-In . SVG Version: 6.00 Build 0)  -->
<svg version="1.1" xmlns="http://www.w3.org/2000/svg" xmlns:xlink="http://www.w3.org/1999/xlink" x="0px" y="0px"
	 viewBox="0 0 64 64" style="enable-background:new 0 0 64 64;" xml:space="preserve">
<g id="linkedin">
	<path d="M32,0.002C14.328,0.002,0,14.329,0,32c0,17.671,14.328,31.999,32,31.999c17.672,0,32-14.327,32-31.999
		C64,14.325,49.672,0.002,32,0.002z M25.6,44.799h-6.4V23.123h6.4V44.799z M22.598,21.794c-1.658,0-2.998-1.3-2.998-2.904
		c0-1.603,1.344-2.905,2.998-2.905c1.658,0.003,3.002,1.305,3.002,2.905C25.6,20.493,24.256,21.794,22.598,21.794z M48,44.799h-6.4
		V31.397c0-1.57-0.462-2.668-2.456-2.668c-3.306,0-3.944,2.668-3.944,2.668v13.403h-6.4V23.123h6.4v2.071
		c0.916-0.677,3.2-2.068,6.4-2.068c2.075,0,6.4,1.202,6.4,8.46V44.799z"/>
</g>
<g id="Layer_1">
</g>
</svg>
